# xmcd
#
# Track frame offsets:
#	150
#	15011
#	50571
#	81525
#	119801
#
# Disc length: 2048 seconds
#
# Revision: 1
# Processed by: cddbd v1.4PL0 Copyright (c) Steve Scherf et al.
# Submitted via: audiograbber 1.80
#
DISCID=3b07fe05
DTITLE=Simply Red - n/a
DYEAR=1900
DGENRE=
TTITLE0=Sunrise
TTITLE1=Sunrise (Love To Infinity Club Mix)
TTITLE2=Sunrise (Love To Infinity Classic Mix)
TTITLE3=Sunrise (ATFC Morning Glory Remix)
TTITLE4=Sunrise (ATFC Early Riser Dub)
EXTD=
EXTT0=
EXTT1=
EXTT2=
EXTT3=
EXTT4=
PLAYORDER=
